<?xml version="1.0" encoding="UTF-8"?>
<svg version="1.1" xmlns="http://www.w3.org/2000/svg" width="180" height="180">
<path d="M0 0 C59.4 0 118.8 0 180 0 C180 59.4 180 118.8 180 180 C120.6 180 61.2 180 0 180 C0 120.6 0 61.2 0 0 Z " fill="#003057" transform="translate(0,0)"/>
<path d="M0 0 C57.02163904 0 57.02163904 0 67.18359375 9.87109375 C71.95608735 15.46466151 72.46838895 21.20960094 72.2109375 28.3984375 C71.57520293 36.23916384 68.50917959 40.6535388 63 46 C61.68515857 47.02419227 60.35662614 48.03183509 59 49 C59.56847656 49.268125 60.13695312 49.53625 60.72265625 49.8125 C67.94131526 53.47605983 73.53480444 58.18574327 76.9375 65.6875 C79.52112026 73.90664195 78.93723922 82.94720607 75.31640625 90.71875 C70.09952579 99.75927875 63.33146691 103.46741323 53.875 107.25 C37.25499375 111.5856538 13.94434976 109 0 109 C0 73.03 0 37.06 0 0 Z " fill="#AC9E68" transform="translate(51,36)"/>
<path d="M0 0 C4.764375 -0.061875 9.52875 -0.12375 14.4375 -0.1875 C15.9217749 -0.21481201 17.4060498 -0.24212402 18.93530273 -0.27026367 C28.11388215 -0.32778054 36.42231966 -0.11097395 43.4375 6.4375 C44.07558594 7.01371094 44.71367188 7.58992188 45.37109375 8.18359375 C49.79719963 13.11917944 49.47889912 18.09493636 49.37890625 24.5078125 C48.84994685 29.38296408 47.38765013 32.48819515 44 36 C37.98274111 40.76366329 32.88008964 42.30832069 25.29296875 42.1953125 C24.3274408 42.19229126 24.3274408 42.19229126 23.34240723 42.18920898 C20.95736478 42.17881174 18.57242459 42.15088947 16.1875 42.125 C10.845625 42.08375 5.50375 42.0425 0 42 C0 28.14 0 14.28 0 0 Z " fill="#033257" transform="translate(65,91)"/>
<path d="M0 0 C4.434375 -0.061875 8.86875 -0.12375 13.4375 -0.1875 C14.81736084 -0.21481201 16.19722168 -0.24212402 17.61889648 -0.27026367 C26.05035608 -0.32694883 32.94611116 0.21295142 40 5.0625 C43.57347008 10.31103419 43.37767518 15.69618143 42.375 21.8125 C40.30518924 26.61069768 37.28525379 29.14316414 33 32 C29.10860126 33.05901189 25.40558591 33.11600724 21.38671875 33.09765625 C19.70002075 33.09390991 19.70002075 33.09390991 17.97924805 33.09008789 C16.56297119 33.08098389 15.14669434 33.07187988 13.6875 33.0625 C9.170625 33.041875 4.65375 33.02125 0 33 C0 22.11 0 11.22 0 0 Z " fill="#013057" transform="translate(66,47)"/>
</svg>
